<?xml version="1.0" encoding="UTF-8"?>
<svg xmlns="http://www.w3.org/2000/svg" xmlns:xlink="http://www.w3.org/1999/xlink" version="1.1" width="25" height="25" x="0" y="0" viewBox="0 0 1200 1200" style="enable-background:new 0 0 512 512" xml:space="preserve">
  <g>
    <path fill-rule="evenodd" d="M1009.488 258.58C974.499 127.232 848.79 64.993 724.994 120.057c-32.443 14.454-60.872 38.766-89.506 60.634-15.223 11.618-26.456 28.292-40.414 41.704-9.738 9.362-21.031 17.119-29.522 23.901-25.524-22.21-45.582-43.856-69.483-59.729-77.086-51.322-168.113-37.894-229.021 32.188-28.873 33.23-50.554 70.355-64.102 112.879-38.73 121.472-24.26 240.655 19.921 356.045 58.754 153.455 168.934 269.494 290.184 375.795 3.023 2.699 12.813-.854 18.502-3.52 1.812-.854 2.512-9.943.376-12.369-14.3-16.333-28.855-32.529-44.522-47.496-89.917-85.936-172.419-177.852-223.023-293.07-53.219-121.097-72.046-245.78-29.197-375.061 12.506-37.723 33.229-70.063 59.745-98.664 46.094-49.665 112.896-60.599 172.691-28.839 37.467 19.938 65.469 48.623 79.034 90.225-8.184 18.69-17.837 35.81-23.32 54.158-11.021 37.022-21.596 74.336-28.908 112.229-5.569 28.941-.341 58.259 13.907 84.672 20.143 37.244 64.461 40.456 89.268 6.321 6.937-9.533 10.935-21.458 15.257-32.7 13.437-34.955 14.411-71.585 8.329-107.531-6.809-40.337-17.931-79.905-27.584-121.506 30.762-63.572 80.067-114.416 137.268-140.385 33.776-15.377 69.056-22.774 106.13-17.7 70.047 9.585 124.735 61.249 143.579 136.746 14.488 58.122 11.566 116.791-11.822 171.273-24.738 57.61-52.04 115.083-86.158 167.431-47.563 72.985-100.868 142.418-154.719 211.029-58.532 74.558-112.238 152.054-159.102 234.334-5.449 9.636-8.183 20.81-18.144 46.949 41.208-17.939 48.76-41.961 61.897-60.686 47.334-67.348 93.838-135.311 141.692-202.316 53.492-74.934 108.71-148.671 161.997-223.81 36.681-51.664 63.965-108.624 84.296-168.489 20.621-60.854 25.695-123.401 8.968-186.119zM575.461 526.16c-4.032 7.142-14.693 14.829-22.022 14.59-7.176-.273-16.641-9.021-20.364-16.401-5.229-10.318-7.467-22.723-8.509-34.477-3.998-43.941 11.635-96.955 42.028-146.843 32 57.456 36.339 134.406 8.867 183.131z" fill="#4babe3" opacity="1" data-original="#000000"/>
  </g>
</svg>
