<?xml version="1.0" encoding="UTF-8"?>
<svg xmlns="http://www.w3.org/2000/svg" xmlns:xlink="http://www.w3.org/1999/xlink" version="1.1" width="512" height="512" x="0" y="0" viewBox="0 0 512 512" style="enable-background:new 0 0 512 512" xml:space="preserve">
  <g>
    <path d="M393.93 192.91c-34.06-2-85.24.11-119.88-.29-7-.66-27.88-31.62-34.69-37.89a24.23 24.23 0 0 0-22.19-9.73c-19.91.2-50.21.86-70.23 1.17-20.26-1.67-41.2 4.34-39.65 28.74 1.36 52.7 2.87 106.29 5.46 158.92 2.66-53.79 4.13-108.49 5.59-162.35 1.11-15.09 18.22-12.6 28.6-12.29 14.7.26 44.45.83 59.14 1 4.28.75 17.23-1.83 19.89 3.1 7.42 9.25 22.75 28.4 30.1 37.46 5.78 7.9 15.88 9.52 25.06 8.95 32.53.26 70.95.35 103.49.4 14.29-1 16.15 10.4 15.91 22.41-77.89-8.46-159.66-5.56-238.15-2.82-17.73 6.27-19 21.86-17.5 37.94 1.37 33.24 3.13 66.47 6.32 99.6q-24.18.93-48.35 2.05c94.76 4.47 189.78 6.49 284.59 7.8 21.19.42 31-16.27 29.33-35.79.6-18.8.51-69.28 1.11-88.68.03-22.76 5.37-52.7-23.95-59.7zm6.32 157c-.06 9.3-8.47 12.42-16.5 11.61-77.33 1.09-154.82 2.68-232.17 5.68 3.19-33.12 4.95-66.34 6.32-99.58.43-8-1.09-20.6 8.77-23.09 69.21.94 139.12 1.63 208.35-1 11.33-.42 20.17-2 24.87 3.42.32 26.74.35 76.72.36 103.05z" fill="#4babe3" opacity="1" data-original="#000000"/>
  </g>
</svg>
