<?xml version="1.0" encoding="UTF-8"?>
<svg xmlns="http://www.w3.org/2000/svg" xmlns:xlink="http://www.w3.org/1999/xlink" version="1.1" width="512" height="512" x="0" y="0" viewBox="0 0 512 512" style="enable-background:new 0 0 512 512" xml:space="preserve" class="">
  <g>
    <path d="M416.4 158.68c1.13-15.06-10.74-29.39-25.95-30.41-7.16-.32-20.53 0-27.88-.06-75.81.33-155.77 1.11-231.35 2.64-25.47 2.4-26.15 21.93-24.66 42.51 1.27 51.33 2.73 103.63 5.15 154.87 2.62-56.39 4.2-113.87 5.5-170.36.74-17.54 16-14.43 28.53-14.28 75.81 1.44 156.33 2.17 232.31 2.41 3.15.22 10.69-.6 13.77.78-48.17 38-92.6 80.37-135.86 123.79-35.2-34-71.42-67.5-110.12-97.53 33.69 43.3 71.78 83.51 110.12 122.7 47.94-47.25 94.87-95.7 136.62-148.61 6.07 2.72 6.14 9.71 5.83 15.43 0 55 .34 125.29 1 180 .92 7.09-4.85 13.84-12.16 13.49-94.16 1.41-188.54 3.34-282.65 7.61 92.81 4.22 185.92 6.14 278.77 7.55 6.48.39 13.46-.32 19.05-4 9.14-5.38 13.75-16.18 13-26.6.12-4.9.16-18.16.24-23.23.48-46.1.75-112.38.74-158.7z" fill="#4babe3" opacity="1" data-original="#000000"/>
  </g>
</svg>
