<?xml version="1.0" encoding="UTF-8"?>
<svg xmlns="http://www.w3.org/2000/svg" xmlns:xlink="http://www.w3.org/1999/xlink" version="1.1" width="512" height="512" x="0" y="0" viewBox="0 0 512 512" style="enable-background:new 0 0 512 512" xml:space="preserve" class="">
  <g>
    <path d="M138.21 333.07c17.57-.81 43.52-1.89 61.41-2.48 5-.14 11.38-.92 16.2.69 5.45 1.48 9.64 5.75 13.59 9.56C240.6 351.27 263 372.52 274 383.08c1.31 1.1 6.34 6.16 7.64 7.29.08.09 0 0 0 0a1.39 1.39 0 0 0-1.29-.36 1.45 1.45 0 0 0-1 1.21s0 0 0-.08c0-1.44-.21-8.46-.24-10.07-.12-5.36-.42-17.92-.49-23-1.68-13.45 5-27 18.63-30.9a28.7 28.7 0 0 1 7.58-1.1c24.28-.4 48.64-.74 72.93-1 9.43.32 13.43-7.58 12.3-16.12-.32-37.8-.61-100.3-.62-138.19.84-6.3-3.7-12.84-10.38-12.74-79.57-.14-164.2-.92-243.67-2.42-12.73-.46-27.06-2.37-27.12 15.25-1.29 56-2.89 113-5.53 168.89-2.7-56.56-4.24-114.16-5.58-170.81-.68-14 11.64-26.6 25.76-26.16 2.83.13 9.53-.31 12.47-.23 79.14-1.52 163.55-2.27 242.79-2.42 15.68-.73 29.7 13 29.26 28.72-.11 40.57-.2 103.52-.65 144A28.35 28.35 0 0 1 402.7 328c-7.7 12.75-21 13.85-34.44 12.94q-31.68-.33-63.34-.89a13.06 13.06 0 0 0-8.25 2.53c-5.06 3.39-5.41 9.9-5.24 15.44-.05 5.09-.39 17.83-.49 23-.34 6.55 1.4 16.91-6.83 19.32-7.51 3-12.77-5.62-17.36-10.05-12.51-13.16-33.83-35.57-46.19-48.81-4.92-6.16-13.77-5.86-20.94-6-17.9-.69-43.72-1.48-61.41-2.41z" fill="#4babe3" opacity="1" data-original="#000000" class=""/>
  </g>
</svg>
