<?xml version="1.0" encoding="UTF-8"?>
<svg xmlns="http://www.w3.org/2000/svg" xmlns:xlink="http://www.w3.org/1999/xlink" version="1.1" width="512" height="512" x="0" y="0" viewBox="0 0 512 512" style="enable-background:new 0 0 512 512" xml:space="preserve" class="">
  <g>
    <path d="M399 368.59c-8.47-62-59.39-114.72-120.93-125.64 23.65-12.52 39.22-38.29 38.95-65 .34 27.31-18.08 53.54-43.94 62.21-12.79 2.52-26.65-1.63-39.83 1.06C187.13 228.94 169.88 168 203 133.55c39.53-44 114.57-15.26 114.1 44.4.66-63.33-77.68-98-123.89-54.19C155 157.65 165.55 224.78 212.49 245c-70 17-118.74 87.43-109.63 158.73C101.73 279.87 244 207.7 339.16 290.08a139.93 139.93 0 0 1 45 79.32 14.52 14.52 0 0 1-.14 6.12 14.34 14.34 0 0 1-14 10.59c-69.46 1.16-139 3-208.45 6.93C231.2 397 301 398.83 370.71 400c16.36.47 30.58-15.07 28.29-31.41z" fill="#4babe3" opacity="1" data-original="#000000"/>
  </g>
</svg>
